<svg xmlns="http://www.w3.org/2000/svg" xmlns:xlink="http://www.w3.org/1999/xlink" width="80" zoomAndPan="magnify" viewBox="0 0 60 60" height="80" preserveAspectRatio="xMidYMid meet" version="1.0"><path fill="#ffffff" d="M 30 60 C 13.421875 60 0 46.582031 0 30 C 0 13.417969 13.417969 0 30 0 C 46.582031 0 60 13.417969 60 30 C 60 46.582031 46.582031 60 30 60 Z M 30 60 " fill-opacity="1" fill-rule="nonzero"/><path fill="#00ffd9" d="M 36.785156 40.316406 L 41.234375 41.117188 L 41.84375 45.371094 C 38.5625 47.902344 34.453125 49.410156 30 49.410156 C 24.351562 49.410156 19.257812 46.984375 15.707031 43.121094 L 16.351562 38.941406 L 20.703125 38.125 C 22.96875 40.714844 26.296875 42.351562 30 42.351562 C 32.503906 42.351562 34.835938 41.605469 36.785156 40.316406 Z M 36.785156 40.316406 " fill-opacity="1" fill-rule="nonzero"/><path fill="#ff2e17" d="M 48.234375 26.46875 C 48.886719 26.46875 49.410156 26.996094 49.410156 27.648438 L 49.410156 30 C 49.410156 36.25 46.445312 41.820312 41.84375 45.371094 L 36.785156 40.316406 C 38.695312 39.058594 40.234375 37.285156 41.207031 35.195312 C 41.566406 34.417969 40.992188 33.53125 40.136719 33.53125 L 33.445312 33.53125 C 32.796875 33.53125 32.269531 33.003906 32.269531 32.351562 L 32.269531 27.648438 C 32.269531 26.996094 32.796875 26.46875 33.445312 26.46875 Z M 48.234375 26.46875 " fill-opacity="1" fill-rule="nonzero"/><path fill="#0056d1" d="M 20.703125 38.125 L 15.707031 43.121094 C 12.53125 39.664062 10.589844 35.054688 10.589844 30 C 10.589844 25.097656 12.414062 20.609375 15.425781 17.191406 L 19.175781 18.078125 L 20.433594 22.195312 C 18.691406 24.324219 17.648438 27.042969 17.648438 30 C 17.648438 33.109375 18.800781 35.953125 20.703125 38.125 Z M 20.703125 38.125 " fill-opacity="1" fill-rule="nonzero"/><path fill="#ffc933" d="M 40.398438 15.066406 L 37.699219 18.9375 C 37.351562 19.4375 36.679688 19.585938 36.152344 19.285156 C 34.285156 18.210938 32.179688 17.648438 30 17.648438 C 26.144531 17.648438 22.699219 19.421875 20.433594 22.195312 L 15.425781 17.191406 C 18.988281 13.144531 24.199219 10.589844 30 10.589844 C 33.570312 10.589844 37.019531 11.550781 40.042969 13.382812 C 40.625 13.738281 40.789062 14.507812 40.398438 15.066406 Z M 40.398438 15.066406 " fill-opacity="1" fill-rule="nonzero"/></svg>